inDegrees=yes
name=ik_S54_A12_T01
DataType=double
version=3
OpenSimVersion=4.3-2021-08-27-4bc7ad9
endheader
time	pelvis_tilt	pelvis_list	pelvis_rotation	pelvis_tx	pelvis_ty	pelvis_tz	hip_flexion_r	hip_adduction_r	hip_rotation_r	knee_angle_r	knee_angle_r_beta	ankle_angle_r	subtalar_angle_r	mtp_angle_r	hip_flexion_l	hip_adduction_l	hip_rotation_l	knee_angle_l	knee_angle_l_beta	ankle_angle_l	subtalar_angle_l	mtp_angle_l	lumbar_extension	lumbar_bending	lumbar_rotation	arm_flex_r	arm_add_r	arm_rot_r	elbow_flex_r	pro_sup_r	wrist_flex_r	wrist_dev_r	arm_flex_l	arm_add_l	arm_rot_l	elbow_flex_l	pro_sup_l	wrist_flex_l	wrist_dev_l
13.01999999999981	-3.326799839278184	0.9315245195038164	38.4675120425	0	0.9399999999999999	0	36.05478510229754	-9.810921449434488	-9.426573172824225	41.8330101742275	0.7301237635605565	0	0	0	36.05478510229754	-9.810921449434488	-9.426573172824225	41.8330101742275	0.7301237635605565	0	0	0	-1.384446370873689	3.557020516070728	7.38054928523557	14.63152075461648	-5.778644353964916	-5.904729087564216	4.134309293638122	137.8233180379511	0	0	89.90641129949719	-47.41408247780533	39.11667306159077	40.71286860397121	63.63768963725159	0	0
13.03999999999981	-3.189828560373598	0.8946616244669884	38.89872959260733	0	0.9399999999999999	0	36.06282483683862	-9.811507422828363	-9.427712878496161	41.84113813835019	0.7302656232959814	0	0	0	36.06282483683862	-9.811507422828363	-9.427712878496161	41.84113813835019	0.7302656232959814	0	0	0	-1.297425554762643	3.441500114466928	7.247140745211847	14.47690492460578	-5.60887790072871	-6.267231387806087	4.132729195694826	137.8248397531228	0	0	87.90286845139697	-48.42384318177433	37.20730278893124	43.49285877937763	65.57460877222225	0	0
13.05999999999981	-3.148192252231699	0.9082704707654889	39.81039375859866	0	0.9399999999999999	0	36.1985487601924	-9.818253119362797	-9.442903044124556	42.02022821456828	0.7333913347836347	0	0	0	36.1985487601924	-9.818253119362797	-9.442903044124556	42.02022821456828	0.7333913347836347	0	0	0	-1.237335623605557	3.40937068996758	6.438144399454189	14.34324798905258	-5.472561596179133	-6.036514250474602	4.11957842958347	138.1167404113803	0	0	81.77459258102073	-51.08614896664042	31.03872964454728	48.94059078087236	68.70546930379422	0	0
13.07999999999981	-3.077324184140767	0.880872386204939	40.06961250928503	0	0.9399999999999999	0	36.20156723100482	-9.818463028573419	-9.443319098641116	42.02335234269105	0.7334458611056313	0	0	0	36.20156723100482	-9.818463028573419	-9.443319098641116	42.02335234269105	0.7334458611056313	0	0	0	-1.199549165441853	3.342955943789424	6.336681724160212	14.24334813796549	-5.374072100283633	-6.048445369309048	4.193966049508817	138.2508105915867	0	0	81.93515380095921	-50.9259255752579	31.34016735239137	49.70807873664324	70.29337324805456	0	0
13.09999999999981	-3.027990696768045	0.8695341064197675	40.99969316429735	0	0.9399999999999999	0	36.33945639275852	-9.82518630813273	-9.458595062575545	42.20516279170966	0.7366190520555354	0	0	0	36.33945639275852	-9.82518630813273	-9.458595062575545	42.20516279170966	0.7366190520555354	0	0	0	-1.158384865395773	3.291159009940712	5.574027128481275	14.17431330040852	-5.333153750673627	-6.127501927005227	4.222865287434781	138.5757489203935	0	0	74.75252908657215	-53.09743966849916	24.20733173190478	55.01950192628075	73.60300251818306	0	0
13.11999999999981	-2.933410977063176	0.8554388011680681	41.51778896178423	0	0.9399999999999999	0	36.34788722813586	-9.825773522668973	-9.459761472201752	42.2137056825516	0.7367681536283656	0	0	0	36.34788722813586	-9.825773522668973	-9.459761472201752	42.2137056825516	0.7367681536283656	0	0	0	-1.089508490493756	3.218707634446872	5.362939411120863	14.01482949135609	-5.267398515030709	-6.343723769767845	4.221173643129267	138.8553718507446	0	0	70.66233368404123	-53.56429778630012	20.96078907072552	58.03987253604736	76.1062701590665	0	0
13.13999999999981	-2.840282527162842	0.8384025952401313	41.96327408374783	0	0.9399999999999999	0	36.35531122359276	-9.826289685272656	-9.460787754478169	42.22122749442536	0.7368994340112782	0	0	0	36.35531122359276	-9.826289685272656	-9.460787754478169	42.22122749442536	0.7368994340112782	0	0	0	-1.028004240924322	3.143435492847644	5.165191760287911	13.87543911602557	-5.158952460360163	-6.410631914260945	4.209257847874843	139.046238045648	0	0	66.40776557028131	-54.10844347311874	17.42221428356782	60.61868553622512	76.88241197213799	0	0
13.15999999999981	-2.797666604703524	0.8030472438367331	42.38945936363209	0	0.9399999999999999	0	36.3631061919967	-9.826830046201383	-9.461863634195874	42.22913266226312	0.73703740521797	0	0	0	36.3631061919967	-9.826830046201383	-9.461863634195874	42.22913266226312	0.73703740521797	0	0	0	-1.008344214426154	3.090663048771467	4.914683999722135	13.86386242295017	-5.087000599100784	-6.61123561680212	4.177876617343832	139.2532530248622	0	0	61.891836558692	-54.48786213430822	13.70247491227463	63.14615985450833	78.17666053630063	0	0
13.17999999999981	-2.736639620648447	0.7382308240516471	42.86679199455116	0	0.9399999999999999	0	36.37050562977852	-9.827342320042696	-9.462884409720221	42.23663288843832	0.7371683088593716	0	0	0	36.37050562977852	-9.827342320042696	-9.462884409720221	42.23663288843832	0.7371683088593716	0	0	0	-0.9978345261700997	3.01207886039734	4.776148732063278	13.78238008152312	-4.993016975667524	-6.652057860242019	4.205882606846965	139.3828366152254	0	0	57.56727254205147	-54.51124021939794	10.32403738288647	65.64556487306866	79.0099372826691	0	0
13.19999999999981	-2.621544330478748	0.6960930967583493	43.33589656568778	0	0.9399999999999999	0	36.46157764297402	-9.83161412112827	-9.472772234347207	42.35701146019499	0.7392693112853737	0	0	0	36.46157764297402	-9.83161412112827	-9.472772234347207	42.35701146019499	0.7392693112853737	0	0	0	-0.939551145456727	2.898798783792005	4.680212024664732	13.57678217668133	-4.873247467400893	-6.721244449841373	4.259989531403141	139.5585232909391	0	0	52.83407466946426	-53.90562176791358	7.283572850919477	67.78517867138441	80.22849701393362	0	0
13.21999999999981	-2.513488038036059	0.6930769296913222	43.65302811942585	0	0.9399999999999999	0	36.46763743972624	-9.832026207153506	-9.473600027752402	42.36316965724129	0.7393767920998181	0	0	0	36.46763743972624	-9.832026207153506	-9.473600027752402	42.36316965724129	0.7393767920998181	0	0	0	-0.8635590966239344	2.820489621874014	4.710885288050555	13.32414193224991	-4.769829328178525	-6.672590286169859	4.351419288257675	139.6249177126626	0	0	52.92724814548917	-53.42364331326282	8.223885219055035	66.07482445594292	79.20821681814867	0	0
13.23999999999981	-2.480389764845164	0.6397234044210885	44.0819147154423	0	0.9399999999999999	0	36.55877253658989	-9.836371081216775	-9.483599872866716	42.48145442845276	0.7414412508124266	0	0	0	36.55877253658989	-9.836371081216775	-9.483599872866716	42.48145442845276	0.7414412508124266	0	0	0	-0.8761498494066332	2.757816502438818	4.592823691764393	13.29885671903935	-4.672303331713215	-6.548297746776289	4.336620463455675	139.8344892216326	0	0	48.03015988721787	-52.51115181855408	5.113358920044939	67.38022845370483	80.03868080600303	0	0
